<svg width="16" height="16" viewBox="0 0 16 16" fill="none" xmlns="http://www.w3.org/2000/svg">
<path d="M8.66676 0.75C8.66676 0.941251 8.80104 1.10536 8.98555 1.15568C9.04986 1.17322 9.11233 1.1913 9.17232 1.20938C9.52788 1.31563 9.739 1.72812 9.64455 2.12812C9.55011 2.52813 9.18343 2.76562 8.82787 2.65937C8.52509 2.56875 8.24176 2.50625 7.98898 2.50312C7.7862 2.5 7.58064 2.55625 7.45008 2.64062C7.39175 2.68125 7.36397 2.71563 7.35286 2.73438C7.34453 2.75 7.33341 2.77188 7.33341 2.82188C7.33341 2.83395 7.33731 2.84605 7.34521 2.85518C7.35765 2.86957 7.38108 2.893 7.42508 2.92188C7.58619 3.03125 7.82509 3.11562 8.1862 3.2375L8.2112 3.24688C8.51954 3.35 8.93065 3.49062 9.26399 3.725C9.64455 3.99375 9.989 4.44063 9.99733 5.12813C10.0057 5.83125 9.68066 6.34375 9.25566 6.64375C9.16494 6.7062 9.07092 6.75975 8.97457 6.80474C8.79733 6.88751 8.66398 7.05439 8.66398 7.25C8.66398 7.66563 8.36676 8 7.99731 8C7.62786 8 7.33064 7.66563 7.33064 7.25C7.33064 7.03968 7.18932 6.85652 6.99069 6.78738C6.85752 6.74103 6.73301 6.69314 6.61952 6.65C6.56118 6.62813 6.50563 6.60625 6.45285 6.5875C6.10284 6.45625 5.91395 6.03125 6.03062 5.6375C6.14729 5.24375 6.52507 5.03125 6.87508 5.1625C6.9473 5.19062 7.01397 5.21562 7.07786 5.24062C7.45564 5.38438 7.72786 5.4875 8.01953 5.5C8.24176 5.50938 8.43898 5.45 8.55287 5.37187C8.60565 5.33437 8.63065 5.30312 8.64176 5.28125C8.65287 5.2625 8.66676 5.225 8.66398 5.15312V5.14687C8.66398 5.11562 8.66398 5.08125 8.55287 5.00313C8.39454 4.89062 8.15564 4.80312 7.80009 4.68125L7.74731 4.6625C7.4473 4.5625 7.05286 4.42812 6.73618 4.2125C6.36118 3.95938 6.00007 3.525 5.99729 2.83437C5.99451 2.11875 6.35563 1.62812 6.76674 1.35312C6.84349 1.30186 6.92283 1.25758 7.00364 1.21929C7.19009 1.13093 7.33011 0.956306 7.33341 0.75C7.33341 0.334375 7.63064 0 8.00009 0C8.36954 0 8.66676 0.334375 8.66676 0.75ZM15.7835 10.5094C16.1474 11.0656 16.0418 11.8469 15.5474 12.2563L12.0307 15.1719C11.3807 15.7094 10.5973 16 9.789 16H5.33339H0.888899C0.397227 16 0 15.5531 0 15V13C0 12.4469 0.397227 12 0.888899 12C1.54692 12 2.18158 11.7561 2.6702 11.3153L3.15837 10.875C3.78893 10.3062 4.57227 10 5.38061 10H7.55564H8.00009H9.77788C10.2696 10 10.6668 10.4469 10.6668 11C10.6668 11.5531 10.2696 12 9.77788 12H8.00009H7.55564C7.31119 12 7.11119 12.225 7.11119 12.5C7.11119 12.775 7.31119 13 7.55564 13C9.72077 13 11.8179 12.2438 13.4848 10.8621L14.2307 10.2437C14.7252 9.83437 15.4196 9.95312 15.7835 10.5094ZM5.37784 12H5.35284C5.36117 12 5.3695 12 5.37784 12Z" fill="white"/>
</svg>
