<svg width="12" height="12" viewBox="0 0 12 12" fill="none" xmlns="http://www.w3.org/2000/svg">
<path d="M11.6449 2.04937C12.1135 1.58083 12.1135 0.819934 11.6449 0.3514C11.1764 -0.117133 10.4155 -0.117133 9.94697 0.3514L6.00004 4.30208L2.04937 0.355149C1.58083 -0.113385 0.819934 -0.113385 0.3514 0.355149C-0.117133 0.823682 -0.117133 1.58458 0.3514 2.05311L4.30208 6.00004L0.355149 9.95072C-0.113385 10.4193 -0.113385 11.1802 0.355149 11.6487C0.823683 12.1172 1.58458 12.1172 2.05312 11.6487L6.00004 7.69801L9.95072 11.6449C10.4193 12.1135 11.1802 12.1135 11.6487 11.6449C12.1172 11.1764 12.1172 10.4155 11.6487 9.94697L7.69801 6.00004L11.6449 2.04937Z" fill="white"/>
</svg>
