<svg width="15" height="15" viewBox="0 0 15 15" fill="none" xmlns="http://www.w3.org/2000/svg">
<path d="M8.65386 1.15385C8.65386 0.515626 8.13823 0 7.50001 0C6.86179 0 6.34616 0.515626 6.34616 1.15385V6.34616H1.15385C0.515626 6.34616 0 6.86179 0 7.50001C0 8.13823 0.515626 8.65386 1.15385 8.65386H6.34616V13.8462C6.34616 14.4844 6.86179 15 7.50001 15C8.13823 15 8.65386 14.4844 8.65386 13.8462V8.65386H13.8462C14.4844 8.65386 15 8.13823 15 7.50001C15 6.86179 14.4844 6.34616 13.8462 6.34616H8.65386V1.15385Z" fill="white"/>
</svg>
