<svg width="13" height="12" viewBox="0 0 13 12" fill="none" xmlns="http://www.w3.org/2000/svg">
<path d="M6.49955 0C6.86012 0 7.19277 0.190444 7.37559 0.502772L12.8604 9.84722C13.0457 10.1621 13.0457 10.5506 12.8655 10.8655C12.6852 11.1803 12.3475 11.3759 11.9843 11.3759H1.01476C0.651651 11.3759 0.31393 11.1803 0.133643 10.8655C-0.0466438 10.5506 -0.0441045 10.1596 0.138722 9.84722L5.62351 0.502772C5.80633 0.190444 6.13898 0 6.49955 0ZM6.49955 3.25024C6.16183 3.25024 5.89013 3.52194 5.89013 3.85966V6.70363C5.89013 7.04135 6.16183 7.31305 6.49955 7.31305C6.83727 7.31305 7.10897 7.04135 7.10897 6.70363V3.85966C7.10897 3.52194 6.83727 3.25024 6.49955 3.25024ZM7.31211 8.93817C7.31211 8.72267 7.2265 8.51599 7.07412 8.3636C6.92173 8.21122 6.71506 8.12561 6.49955 8.12561C6.28405 8.12561 6.07737 8.21122 5.92498 8.3636C5.7726 8.51599 5.68699 8.72267 5.68699 8.93817C5.68699 9.15368 5.7726 9.36035 5.92498 9.51274C6.07737 9.66512 6.28405 9.75073 6.49955 9.75073C6.71506 9.75073 6.92173 9.66512 7.07412 9.51274C7.2265 9.36035 7.31211 9.15368 7.31211 8.93817Z" fill="#DC2626"/>
</svg>
