<svg width="17" height="13" viewBox="0 0 17 13" fill="none" xmlns="http://www.w3.org/2000/svg">
<path d="M8.35641 0C6.01177 0 4.13431 1.06786 2.76758 2.33884C1.40954 3.59821 0.501283 5.10714 0.0718191 6.14307C-0.0239397 6.37231 -0.0239397 6.62767 0.0718191 6.85691C0.501283 7.89285 1.40954 9.40178 2.76758 10.6611C4.13431 11.9321 6.01177 13 8.35641 13C10.701 13 12.5785 11.9321 13.9452 10.6611C15.3033 9.39887 16.2115 7.89285 16.6439 6.85691C16.7397 6.62767 16.7397 6.37231 16.6439 6.14307C16.2115 5.10714 15.3033 3.59821 13.9452 2.33884C12.5785 1.06786 10.701 0 8.35641 0ZM4.17784 6.49999C4.17784 5.39177 4.61808 4.32893 5.40172 3.5453C6.18535 2.76167 7.24818 2.32143 8.35641 2.32143C9.46463 2.32143 10.5275 2.76167 11.3111 3.5453C12.0947 4.32893 12.535 5.39177 12.535 6.49999C12.535 7.60822 12.0947 8.67105 11.3111 9.45469C10.5275 10.2383 9.46463 10.6786 8.35641 10.6786C7.24818 10.6786 6.18535 10.2383 5.40172 9.45469C4.61808 8.67105 4.17784 7.60822 4.17784 6.49999ZM8.35641 4.64285C8.35641 5.66718 7.5236 6.49999 6.49927 6.49999C6.29324 6.49999 6.09592 6.46517 5.91021 6.40423C5.75061 6.352 5.56489 6.45066 5.5707 6.61897C5.5794 6.81919 5.60842 7.01941 5.66355 7.21963C6.0611 8.70535 7.59034 9.58749 9.07605 9.18995C10.5618 8.7924 11.4439 7.26316 11.0464 5.77745C10.7243 4.57321 9.65931 3.76361 8.47538 3.71428C8.30708 3.70848 8.20842 3.89129 8.26065 4.05379C8.32159 4.2395 8.35641 4.43683 8.35641 4.64285Z" fill="#6B7280"/>
</svg>
