<svg width="24" height="21" viewBox="0 0 24 21" fill="none" xmlns="http://www.w3.org/2000/svg">
<path d="M10.2141 3.46406L15.9703 9.22031C16.3078 9.55781 16.5 10.0219 16.5 10.5C16.5 10.9781 16.3078 11.4422 15.9703 11.7797L10.2141 17.5359C9.91406 17.8359 9.51094 18 9.08906 18C8.2125 18 7.5 17.2875 7.5 16.4109V13.5H1.5C0.670312 13.5 0 12.8297 0 12V9C0 8.17031 0.670312 7.5 1.5 7.5H7.5V4.58906C7.5 3.7125 8.2125 3 9.08906 3C9.51094 3 9.91406 3.16875 10.2141 3.46406ZM16.5 18H19.5C20.3297 18 21 17.3297 21 16.5V4.5C21 3.67031 20.3297 3 19.5 3H16.5C15.6703 3 15 2.32969 15 1.5C15 0.670312 15.6703 0 16.5 0H19.5C21.9844 0 24 2.01562 24 4.5V16.5C24 18.9844 21.9844 21 19.5 21H16.5C15.6703 21 15 20.3297 15 19.5C15 18.6703 15.6703 18 16.5 18Z" fill="#2D5016"/>
</svg>
