<svg width="16" height="15" viewBox="0 0 16 15" fill="none" xmlns="http://www.w3.org/2000/svg">
<path d="M8.6668 0.666677V0.958348C8.84458 0.991682 9.0168 1.03335 9.17236 1.07502C9.52792 1.16946 9.73904 1.53613 9.64459 1.8917C9.55015 2.24726 9.18347 2.45837 8.82791 2.36393C8.52513 2.28337 8.24179 2.22781 7.98901 2.22503C7.78623 2.22226 7.58067 2.27226 7.45011 2.34726C7.39178 2.38337 7.364 2.41393 7.35289 2.43059C7.34456 2.44448 7.33345 2.46393 7.33345 2.50837C7.33345 2.51671 7.33345 2.52226 7.33345 2.52504C7.339 2.53059 7.35845 2.55837 7.42511 2.59726C7.58623 2.69449 7.82512 2.76949 8.18624 2.87782L8.21124 2.88616C8.51957 2.97782 8.93069 3.10283 9.26403 3.31116C9.64459 3.55005 9.98904 3.94728 9.99737 4.5584C10.0057 5.18341 9.6807 5.63898 9.2557 5.90565C9.06958 6.01954 8.86958 6.10009 8.66402 6.15009V6.44454C8.66402 6.81399 8.36679 7.11122 7.99734 7.11122C7.62789 7.11122 7.33067 6.81399 7.33067 6.44454V6.12787C7.06677 6.06398 6.8251 5.98065 6.61955 5.9112C6.56121 5.89176 6.50565 5.87231 6.45288 5.85564C6.10287 5.73898 5.91398 5.36119 6.03065 5.01119C6.14732 4.66118 6.5251 4.47229 6.8751 4.58896C6.94733 4.61396 7.014 4.63618 7.07789 4.6584C7.45567 4.78618 7.7279 4.87785 8.01957 4.88896C8.24179 4.8973 8.43902 4.84452 8.55291 4.77507C8.60569 4.74174 8.63069 4.71396 8.6418 4.69452C8.65291 4.67785 8.6668 4.64452 8.66402 4.58063V4.57507C8.66402 4.54729 8.66402 4.51674 8.55291 4.44729C8.39457 4.34729 8.15568 4.26951 7.80012 4.16117L7.74734 4.14451C7.44734 4.05562 7.05289 3.93617 6.73621 3.7445C6.36121 3.5195 6.00009 3.13338 5.99731 2.51948C5.99454 1.88336 6.35565 1.44724 6.76677 1.2028C6.94455 1.09724 7.13622 1.02502 7.32789 0.975015L7.33345 0.666677C7.33345 0.297227 7.63067 0 8.00012 0C8.36957 0 8.6668 0.297227 8.6668 0.666677ZM15.7836 9.34181C16.1475 9.83626 16.0419 10.5307 15.5475 10.8946L12.0307 13.4863C11.3807 13.9641 10.5974 14.2224 9.78904 14.2224H5.33341H0.888902C0.397228 14.2224 0 13.8252 0 13.3335V11.5557C0 11.0641 0.397228 10.6668 0.888902 10.6668H1.91114L3.15838 9.66681C3.78895 9.16125 4.57229 8.88902 5.38064 8.88902H7.55567H8.00012H9.77793C10.2696 8.88902 10.6668 9.28625 10.6668 9.77793C10.6668 10.2696 10.2696 10.6668 9.77793 10.6668H8.00012H7.55567C7.31122 10.6668 7.11122 10.8668 7.11122 11.1113C7.11122 11.3557 7.31122 11.5557 7.55567 11.5557H10.9057L14.2308 9.10569C14.7252 8.7418 15.4197 8.84736 15.7836 9.34181ZM5.37786 10.6668H5.35286C5.36119 10.6668 5.36953 10.6668 5.37786 10.6668Z" fill="#A7D68A"/>
</svg>
