<svg width="12" height="12" viewBox="0 0 12 12" fill="none" xmlns="http://www.w3.org/2000/svg">
<path d="M5.62621 0C5.73405 0 5.84188 0.0235663 5.94034 0.0683423L10.3546 1.95129C10.8703 2.17046 11.2548 2.68185 11.2524 3.29929C11.2407 5.63707 10.2842 9.91435 6.24509 11.8586C5.8536 12.0471 5.39882 12.0471 5.00733 11.8586C0.968186 9.91435 0.0117319 5.63707 1.06628e-05 3.29929C-0.00233359 2.68185 0.382123 2.17046 0.897859 1.95129L5.31443 0.0683423C5.41054 0.0235663 5.51838 0 5.62621 0ZM5.62621 1.57423V10.4847C8.86128 8.90807 9.73099 5.42261 9.75209 3.33228L5.62621 1.57423Z" fill="#F59E0B"/>
</svg>
