<svg width="12" height="14" viewBox="0 0 12 14" fill="none" xmlns="http://www.w3.org/2000/svg">
<path d="M3.62143 0.474107L3.42857 0.857143H0.857143C0.383036 0.857143 0 1.24018 0 1.71429C0 2.18839 0.383036 2.57143 0.857143 2.57143H11.1429C11.617 2.57143 12 2.18839 12 1.71429C12 1.24018 11.617 0.857143 11.1429 0.857143H8.57143L8.37857 0.474107C8.23393 0.182143 7.93661 0 7.6125 0H4.3875C4.06339 0 3.76607 0.182143 3.62143 0.474107ZM11.1429 3.42857H0.857143L1.425 12.5089C1.46786 13.1866 2.03036 13.7143 2.70804 13.7143H9.29196C9.96964 13.7143 10.5321 13.1866 10.575 12.5089L11.1429 3.42857Z" fill="white"/>
</svg>
